HIERARCHY
ROOT Hips
{
	OFFSET 0.00 0.00 0.00
	CHANNELS 6 Xposition Yposition Zposition Xrotation Yrotation Zrotation
	JOINT Spine
	{
		OFFSET 0.00000 0 0
		CHANNELS 3 Xrotation Yrotation Zrotation
		JOINT Spine1
		{
			OFFSET 0.00000 0 0
			CHANNELS 3 Xrotation Yrotation Zrotation
			JOINT Spine2
			{
				OFFSET 0.00000 0.20092 0
				CHANNELS 3 Xrotation Yrotation Zrotation
				JOINT Spine3
				{
					OFFSET 0.00000 0.00000 2.30533
					CHANNELS 3 Xrotation Yrotation Zrotation
					JOINT Neck
					{
						OFFSET 0.00000 -0.86449 6.05149
						CHANNELS 3 Xrotation Yrotation Zrotation
						JOINT Head
						{
							OFFSET 0.00000 -0.55043 3.12167
							CHANNELS 3 Xrotation Yrotation Zrotation
							End Site
							{
								OFFSET 0.00000 0.00000 3.73175
							}
						}
					}
					JOINT RightShoulder
					{
						OFFSET -0.78828 -1.31380 4.25672
						CHANNELS 3 Xrotation Yrotation Zrotation
						JOINT RightArm
						{
							OFFSET -3.91513 0.00000 0.00000
							CHANNELS 3 Xrotation Yrotation Zrotation
							JOINT RightForeArm
							{
								OFFSET -6.91491 0.00000 0.00000
								CHANNELS 3 Xrotation Yrotation Zrotation
								JOINT RightHand
								{
									OFFSET -6.09622 0.00000 0.00000
									CHANNELS 3 Xrotation Yrotation Zrotation
									JOINT RightHandEnd
									{
										OFFSET -1.74995 0.00000 0.00000
										CHANNELS 3 Xrotation Yrotation Zrotation
										End Site
										{
											OFFSET -1.74995 0.00000 0.00000
										}
									}
									JOINT RightHandThumb1
									{
										OFFSET -0.69998 -1.16663 -0.46665
										CHANNELS 3 Yrotation Xrotation Zrotation
										End Site
										{
											OFFSET -1.69032 -0.45292 0.00000
										}
									}
								}
							}
						}
					}
					JOINT LeftShoulder
					{
						OFFSET 0.78828 -1.31380 4.25672
						CHANNELS 3 Xrotation Yrotation Zrotation
						JOINT LeftArm
						{
							OFFSET 3.91513 0.00000 0.00000
							CHANNELS 3 Xrotation Yrotation Zrotation
							JOINT LeftForeArm
							{
								OFFSET 6.91491 0.00000 0.00000
								CHANNELS 3 Xrotation Yrotation Zrotation
								JOINT LeftHand
								{
									OFFSET 6.09622 0.00000 0.00000
									CHANNELS 3 Xrotation Yrotation Zrotation
									JOINT LeftHandEnd
									{
										OFFSET 1.74995 0.00000 0.00000
										CHANNELS 3 Xrotation Yrotation Zrotation
										End Site
										{
											OFFSET 1.74995 0.00000 0.00000
										}
									}
									JOINT LeftHandThumb1
									{
										OFFSET 0.69998 -1.16663 -0.46665
										CHANNELS 3 Yrotation Xrotation Zrotation
										End Site
										{
											OFFSET 1.69032 -0.45292 0.00000
										}
									}
								}
							}
						}
					}
				}
			}
		}
	}
	JOINT RightUpLeg
	{
		OFFSET -2.33857 0.00000 -0.68318
		CHANNELS 3 Xrotation Yrotation Zrotation
		JOINT RightLeg
		{
			OFFSET 0.00000 0.00000 -10.74496
			CHANNELS 3 Xrotation Yrotation Zrotation
			JOINT RightFoot
			{
				OFFSET 0.00000 0.00000 -10.93085
				CHANNELS 3 Xrotation Yrotation Zrotation
				JOINT RightToeBase
				{
					OFFSET 0.00000 -4.08727 -1.48765
					CHANNELS 3 Xrotation Yrotation Zrotation
					End Site
					{
						OFFSET 0.00000 -1.89187 -0.00000
					}
				}
			}
		}
	}
	JOINT LeftUpLeg
	{
		OFFSET 2.33857 0.00000 -0.68318
		CHANNELS 3 Xrotation Yrotation Zrotation
		JOINT LeftLeg
		{
			OFFSET 0.00000 0.00000 -10.74496
			CHANNELS 3 Xrotation Yrotation Zrotation
			JOINT LeftFoot
			{
				OFFSET 0.00000 0.00000 -10.93085
				CHANNELS 3 Xrotation Yrotation Zrotation
				JOINT LeftToeBase
				{
					OFFSET 0.00000 -4.08727 -1.48765
					CHANNELS 3 Xrotation Yrotation Zrotation
					End Site
					{
						OFFSET 0.00000 -1.89187 -0.00000
					}
				}
			}
		}
	}
}
MOTION
Frames: 11
Frame Time:	0.1
-1.2344 -0.5247 25.0481 -6.3389 1.5268 158.9231 -0.9467 -0.8818 0.6613 -0.4314 -2.9862 0.0497 0.9160 3.3771 10.6242 0.0771 0.8801 1.5412 -6.2439 3.6810 -11.9512 3.7770 0.7580 -17.8822 -10.8288 5.0991 -9.2866 -4.1143 2.9629 8.3573 0.0000 0.0000 14.0990 -6.3276 1.2965 -11.5775 0.0000 0.0000 0.0000 -0.0000 -0.0000 -0.0000 -9.2830 -2.0240 6.9341 -19.4054 1.9126 -14.5823 -0.0000 0.0000 4.8586 2.9106 7.4251 7.6107 0.0000 0.0000 -0.0000 0.0000 0.0000 -0.0000 -8.3456 -2.7124 -6.1466 2.3003 0.0000 0.0000 -0.5011 0.0225 25.7021 4.7461 0.0000 0.0000 -4.7722 -0.8451 8.3983 0.2919 0.0000 0.0000 -5.3589 2.0117 3.7720 -2.8200 0.0000 -0.0000
-1.2344 -0.5247 25.0481 -6.3389 1.5268 158.9231 -0.9467 -0.8818 0.6613 -0.4314 -2.9862 0.0497 0.9160 3.3771 10.6242 0.0771 0.8801 1.5412 -6.2439 3.6810 -11.9512 3.7770 0.7580 -17.8822 -10.8288 5.0991 -9.2866 -4.1143 2.9629 8.3573 0.0000 0.0000 19.0990 -6.3276 1.2965 -11.5775 0.0000 0.0000 0.0000 -0.0000 -0.0000 -0.0000 -9.2830 -2.0240 6.9341 -19.4054 1.9126 -14.5823 -0.0000 0.0000 4.8586 2.9106 7.4251 7.6107 0.0000 0.0000 -0.0000 0.0000 0.0000 -0.0000 -8.3456 -2.7124 -6.1466 2.3003 0.0000 0.0000 -0.5011 0.0225 25.7021 4.7461 0.0000 0.0000 -4.7722 -0.8451 8.3983 0.2919 0.0000 0.0000 -5.3589 2.0117 3.7720 -2.8200 0.0000 -0.0000
-1.2344 -0.5247 25.0481 -6.3389 1.5268 158.9231 -0.9467 -0.8818 0.6613 -0.4314 -2.9862 0.0497 0.9160 3.3771 10.6242 0.0771 0.8801 1.5412 -6.2439 3.6810 -11.9512 3.7770 0.7580 -17.8822 -10.8288 5.0991 -9.2866 -4.1143 2.9629 8.3573 0.0000 0.0000 24.0990 -6.3276 1.2965 -11.5775 0.0000 0.0000 0.0000 -0.0000 -0.0000 -0.0000 -9.2830 -2.0240 6.9341 -19.4054 1.9126 -14.5823 -0.0000 0.0000 4.8586 2.9106 7.4251 7.6107 0.0000 0.0000 -0.0000 0.0000 0.0000 -0.0000 -8.3456 -2.7124 -6.1466 2.3003 0.0000 0.0000 -0.5011 0.0225 25.7021 4.7461 0.0000 0.0000 -4.7722 -0.8451 8.3983 0.2919 0.0000 0.0000 -5.3589 2.0117 3.7720 -2.8200 0.0000 -0.0000
-1.2344 -0.5247 25.0481 -6.3389 1.5268 158.9231 -0.9467 -0.8818 0.6613 -0.4314 -2.9862 0.0497 0.9160 3.3771 10.6242 0.0771 0.8801 1.5412 -6.2439 3.6810 -11.9512 3.7770 0.7580 -17.8822 -10.8288 5.0991 -9.2866 -4.1143 2.9629 8.3573 0.0000 0.0000 29.0990 -6.3276 1.2965 -11.5775 0.0000 0.0000 0.0000 -0.0000 -0.0000 -0.0000 -9.2830 -2.0240 6.9341 -19.4054 1.9126 -14.5823 -0.0000 0.0000 4.8586 2.9106 7.4251 7.6107 0.0000 0.0000 -0.0000 0.0000 0.0000 -0.0000 -8.3456 -2.7124 -6.1466 2.3003 0.0000 0.0000 -0.5011 0.0225 25.7021 4.7461 0.0000 0.0000 -4.7722 -0.8451 8.3983 0.2919 0.0000 0.0000 -5.3589 2.0117 3.7720 -2.8200 0.0000 -0.0000
-1.2344 -0.5247 25.0481 -6.3389 1.5268 158.9231 -0.9467 -0.8818 0.6613 -0.4314 -2.9862 0.0497 0.9160 3.3771 10.6242 0.0771 0.8801 1.5412 -6.2439 3.6810 -11.9512 3.7770 0.7580 -17.8822 -10.8288 5.0991 -9.2866 -4.1143 2.9629 8.3573 0.0000 0.0000 34.0990 -6.3276 1.2965 -11.5775 0.0000 0.0000 0.0000 -0.0000 -0.0000 -0.0000 -9.2830 -2.0240 6.9341 -19.4054 1.9126 -14.5823 -0.0000 0.0000 4.8586 2.9106 7.4251 7.6107 0.0000 0.0000 -0.0000 0.0000 0.0000 -0.0000 -8.3456 -2.7124 -6.1466 2.3003 0.0000 0.0000 -0.5011 0.0225 25.7021 4.7461 0.0000 0.0000 -4.7722 -0.8451 8.3983 0.2919 0.0000 0.0000 -5.3589 2.0117 3.7720 -2.8200 0.0000 -0.0000
-1.2344 -0.5247 25.0481 -6.3389 1.5268 158.9231 -0.9467 -0.8818 0.6613 -0.4314 -2.9862 0.0497 0.9160 3.3771 10.6242 0.0771 0.8801 1.5412 -6.2439 3.6810 -11.9512 3.7770 0.7580 -17.8822 -10.8288 5.0991 -9.2866 -4.1143 2.9629 8.3573 0.0000 0.0000 39.0990 -6.3276 1.2965 -11.5775 0.0000 0.0000 0.0000 -0.0000 -0.0000 -0.0000 -9.2830 -2.0240 6.9341 -19.4054 1.9126 -14.5823 -0.0000 0.0000 4.8586 2.9106 7.4251 7.6107 0.0000 0.0000 -0.0000 0.0000 0.0000 -0.0000 -8.3456 -2.7124 -6.1466 2.3003 0.0000 0.0000 -0.5011 0.0225 25.7021 4.7461 0.0000 0.0000 -4.7722 -0.8451 8.3983 0.2919 0.0000 0.0000 -5.3589 2.0117 3.7720 -2.8200 0.0000 -0.0000
-1.2344 -0.5247 25.0481 -6.3389 1.5268 158.9231 -0.9467 -0.8818 0.6613 -0.4314 -2.9862 0.0497 0.9160 3.3771 10.6242 0.0771 0.8801 1.5412 -6.2439 3.6810 -11.9512 3.7770 0.7580 -17.8822 -10.8288 5.0991 -9.2866 -4.1143 2.9629 8.3573 0.0000 0.0000 44.0990 -6.3276 1.2965 -11.5775 0.0000 0.0000 0.0000 -0.0000 -0.0000 -0.0000 -9.2830 -2.0240 6.9341 -19.4054 1.9126 -14.5823 -0.0000 0.0000 4.8586 2.9106 7.4251 7.6107 0.0000 0.0000 -0.0000 0.0000 0.0000 -0.0000 -8.3456 -2.7124 -6.1466 2.3003 0.0000 0.0000 -0.5011 0.0225 25.7021 4.7461 0.0000 0.0000 -4.7722 -0.8451 8.3983 0.2919 0.0000 0.0000 -5.3589 2.0117 3.7720 -2.8200 0.0000 -0.0000
-1.2344 -0.5247 25.0481 -6.3389 1.5268 158.9231 -0.9467 -0.8818 0.6613 -0.4314 -2.9862 0.0497 0.9160 3.3771 10.6242 0.0771 0.8801 1.5412 -6.2439 3.6810 -11.9512 3.7770 0.7580 -17.8822 -10.8288 5.0991 -9.2866 -4.1143 2.9629 8.3573 0.0000 0.0000 49.0990 -6.3276 1.2965 -11.5775 0.0000 0.0000 0.0000 -0.0000 -0.0000 -0.0000 -9.2830 -2.0240 6.9341 -19.4054 1.9126 -14.5823 -0.0000 0.0000 4.8586 2.9106 7.4251 7.6107 0.0000 0.0000 -0.0000 0.0000 0.0000 -0.0000 -8.3456 -2.7124 -6.1466 2.3003 0.0000 0.0000 -0.5011 0.0225 25.7021 4.7461 0.0000 0.0000 -4.7722 -0.8451 8.3983 0.2919 0.0000 0.0000 -5.3589 2.0117 3.7720 -2.8200 0.0000 -0.0000
-0.0000 -0.0000 00.0000 -0.0000 0.0000 000.0000 -0.0000 -0.0000 0.0000 -0.0000 -0.0000 0.0000 0.0000 0.0000 00.0000 -0.0000 0.0000 0.0000 -0.0000 0.0000 -00.0000 0.0000 0.0000 -00.0000 -00.0000 0.0000 -0.0000 -0.0000 0.0000 0.0000 0.0000 0.0000 00.0000 -0.0000 0.0000 -00.0000 0.0000 0.0000 0.0000 -0.0000 -0.0000 0.0000 -0.0000 -0.0000 0.0000 -00.0000 0.0000 -00.0000 -0.0000 0.0000 0.0000 0.0000 0.0000 0.0000 -0.0000 -0.0000 0.0000 0.0000 -0.0000 -0.0000 -0.0000 -0.0000 -0.0000 0.0000 0.0000 0.0000 -0.0000 0.0000 00.0000 0.0000 0.0000 0.0000 -0.0000 -0.0000 0.0000 0.0000 0.0000 0.0000 -0.0000 0.0000 0.0000 -0.0000 0.0000 -0.0000
 -0.0000 -0.0000 00.0000 -0.0000 0.0000 000.0000 -0.0000 -0.0000 0.0000 -0.0000 -0.0000 0.0000 0.0000 0.0000 00.0000 -0.0000 0.0000 0.0000 -0.0000 0.0000 -00.0000 0.0000 0.0000 -00.0000 -00.0000 0.0000 -0.0000 -0.0000 0.0000 0.0000 0.0000 0.0000 00.0000 -0.0000 0.0000 -00.0000 0.0000 0.0000 0.0000 -0.0000 -0.0000 0.0000 -0.0000 -0.0000 0.0000 -00.0000 0.0000 -00.0000 -0.0000 0.0000 0.0000 0.0000 0.0000 0.0000 -0.0000 -0.0000 0.0000 0.0000 -0.0000 -0.0000 -0.0000 -0.0000 -0.0000 0.0000 0.0000 0.0000 -0.0000 0.0000 00.0000 0.0000 0.0000 0.0000 -0.0000 -0.0000 0.0000 0.0000 0.0000 0.0000 -0.0000 0.0000 0.0000 -0.0000 0.0000 -0.0000
 -0.0000 -0.0000 00.0000 -0.0000 0.0000 000.0000 -0.0000 -0.0000 0.0000 -0.0000 -0.0000 0.0000 0.0000 0.0000 00.0000 -0.0000 0.0000 0.0000 -0.0000 0.0000 -00.0000 0.0000 0.0000 -00.0000 -00.0000 0.0000 -0.0000 -0.0000 0.0000 0.0000 0.0000 0.0000 00.0000 -0.0000 0.0000 -00.0000 0.0000 -0.0000 -0.0000 0.0000 -0.0000 -0.0000 -0.0000 -0.0000 0.0000 -00.0000 0.0000 -00.0000 -0.0000 0.0000 0.0000 0.0000 0.0000 0.0000 0.0000 -0.0000 -0.0000 0.0000 0.0000 0.0000 -0.0000 -0.0000 -0.0000 0.0000 0.0000 0.0000 -0.0000 0.0000 00.0000 0.0000 0.0000 0.0000 -0.0000 -0.0000 0.0000 0.0000 0.0000 0.0000 -0.0000 0.0000 0.0000 -0.0000 0.0000 -0.0000
